<svg xmlns="http://www.w3.org/2000/svg" width="178" height="50" viewBox="0 0 178 50"><defs><style>.a{fill:#0a81c4;}</style></defs><path class="a" d="M24.883,0A24.883,24.883,0,1,0,49.766,24.883,24.888,24.888,0,0,0,24.883,0ZM38.831,32.979c-2,1.612-4.521,2.033-7.36,2.033H23.481l-1.437-4.276H15.806l1.157-3.68h3.89l-2.664-7.991h-.105l-5.4,15.946H7.92l7.395-20.257h5.958L27.3,31.3h4.206c3.715,0,5.607-2,5.607-6.378,0-4.171-2-6.378-5.572-6.378H24.532l-1.367-3.75h8.306c2.839,0,5.327.421,7.325,2,2.173,1.752,3.084,4.766,3.084,8.061,0,3.364-.876,6.378-3.049,8.131Zm32.208,2.068L69.6,30.771H61.927L60.49,35.046H55.618l7.325-20.152h5.923l7.325,20.152ZM65.817,19.17h-.105l-2.628,7.956h5.4L65.817,19.17ZM89.964,33.995a7.557,7.557,0,0,1-5.012,1.437,10.982,10.982,0,0,1-4.346-.911l-.07.491H77.347v-21.1H81.8v6.869a15.075,15.075,0,0,1,4.661-1.016,5.629,5.629,0,0,1,4.135,1.577c1.367,1.4,1.928,3.5,1.928,6.238C92.522,30.49,91.541,32.768,89.964,33.995ZM84.882,23.411a9.5,9.5,0,0,0-3.084.7v7.465a6.184,6.184,0,0,0,2.453.526C86.7,32.1,88,30.736,88,27.722,88,24.743,86.915,23.411,84.882,23.411Zm9.883,11.635V13.913h4.451V35.046Zm13.843.386a6.82,6.82,0,0,1-4.906-1.717,8.737,8.737,0,0,1-1.963-6.133,8.214,8.214,0,0,1,2.278-6.238,7.492,7.492,0,0,1,5.257-1.577,7.59,7.59,0,0,1,5.082,1.542c1.928,1.647,2.033,4,2.033,7.255H106.225c.105,2.453,1.3,3.575,3.75,3.575a28.544,28.544,0,0,0,5.818-.771v3.049A32.591,32.591,0,0,1,108.608,35.432Zm.491-12.967c-2.033,0-2.7,1.3-2.839,3.364h5.748C111.9,23.551,111.132,22.465,109.1,22.465Zm24.532,10.619a10.848,10.848,0,0,1-6.764,1.963h-6.939V14.895h7.044a10.673,10.673,0,0,1,6.659,1.963c1.928,1.542,3.014,4.1,3.014,8.1-.035,4.065-1.086,6.554-3.014,8.131Zm-6.589-16.332h-5.012V33.189h4.906c5.187,0,7.395-2.593,7.395-8.2.035-5.362-2.383-8.236-7.29-8.236ZM140.571,33.89c-1.4-1.192-2.1-3.119-2.138-6.273,0-3.189.736-5.082,2.138-6.308a7.4,7.4,0,0,1,4.836-1.542,7.538,7.538,0,0,1,4.836,1.542c1.4,1.192,2.138,3.119,2.138,6.273,0,3.189-.736,5.082-2.138,6.308a7.1,7.1,0,0,1-4.836,1.542A7.275,7.275,0,0,1,140.571,33.89Zm9.708-6.273c0-4.1-1.472-6.133-4.871-6.133-3.54,0-4.836,1.822-4.836,6.133,0,4.1,1.472,6.168,4.836,6.168C148.947,33.785,150.278,31.927,150.278,27.616Zm10.514,7.815a5.677,5.677,0,0,1-4.206-1.682c-1.367-1.437-1.928-3.54-1.928-6.133,0-2.558.7-5.047,2.558-6.484a7.562,7.562,0,0,1,4.836-1.367c1.086,0,2.208.105,3.4.21V21.8a26.752,26.752,0,0,0-3.4-.245c-3.75,0-5.327,1.928-5.327,6.1,0,3.68,1.437,5.993,4.521,5.993a16.95,16.95,0,0,0,4.416-.876v1.752a17.374,17.374,0,0,1-4.871.911Zm15.315-.771a8.6,8.6,0,0,1-4.171.806c-1.227,0-2.664-.105-4.1-.245V33.469c1.4.105,2.839.245,3.96.245a8.13,8.13,0,0,0,2.979-.421,2.138,2.138,0,0,0,1.3-2.138c0-1.262-.736-1.963-2.1-2.383-.806-.28-1.612-.456-2.664-.736-2.243-.631-3.5-1.647-3.5-4.065a3.751,3.751,0,0,1,1.822-3.4,7.8,7.8,0,0,1,3.89-.771c1.051,0,2.348.105,3.715.21v1.752c-1.332-.14-2.628-.245-3.61-.245a7.376,7.376,0,0,0-2.664.386,1.989,1.989,0,0,0-1.192,2.033c0,1.192.631,1.787,1.928,2.243.771.245,1.542.456,2.628.736,2.313.631,3.68,1.717,3.68,4.241A3.911,3.911,0,0,1,176.107,34.661Z" transform="translate(0)"/></svg>