<?xml version="1.0" encoding="utf-8"?>
<!-- Generator: Adobe Illustrator 23.1.0, SVG Export Plug-In . SVG Version: 6.00 Build 0)  -->
<svg version="1.1" id="Layer_1" xmlns="http://www.w3.org/2000/svg" xmlns:xlink="http://www.w3.org/1999/xlink" x="0px" y="0px"
	 viewBox="0 0 349.2 142.1" style="enable-background:new 0 0 349.2 142.1;" xml:space="preserve">
<style type="text/css">
	.st0{fill:#0A81C4;}
</style>
<path class="st0" d="M44,100l-4.1-12.2H18L13.9,100H0l20.9-57.5h16.9L58.7,100H44L44,100z M29.1,54.7h-0.3l-7.5,22.7h15.4L29.1,54.7
	L29.1,54.7z M98,97c-3.6,2.9-8.1,4.1-14.3,4.1c-4.1,0-8.6-0.9-12.4-2.6l-0.2,1.4H62V39.7h12.7v19.6c4.3-1.5,9.1-2.9,13.3-2.9
	c4.8,0,8.8,1.5,11.8,4.5c3.9,4,5.5,10,5.5,17.8C105.3,87,102.5,93.5,98,97z M83.5,66.8c-2.6,0-5.9,0.9-8.8,2v21.3
	c2.2,1,4.8,1.5,7,1.5c7,0,10.7-3.9,10.7-12.5C92.4,70.6,89.3,66.8,83.5,66.8z M111.7,100V39.7h12.7V100H111.7z M151.2,101.1
	c-4.5,0-10.2-1-14-4.9c-4-4.2-5.6-10.5-5.6-17.5c0-6.7,1.7-13.5,6.5-17.8c3.9-3.4,8.7-4.5,15-4.5c4.9,0,10.3,0.8,14.5,4.4
	c5.5,4.7,5.8,11.4,5.8,20.7h-29c0.3,7,3.7,10.2,10.7,10.2c5.3,0,11-1,16.6-2.2v8.7C165.2,99.7,158.1,101.1,151.2,101.1z M152.6,64.1
	c-5.8,0-7.7,3.7-8.1,9.6h16.4C160.6,67.2,158.4,64.1,152.6,64.1z M222.6,94.4c-5.1,4.1-12.3,5.6-19.3,5.6h-19.8V42.5h20.1
	c6.9,0,13.8,1.5,19,5.6c5.5,4.4,8.6,11.7,8.6,23.1C231.1,82.8,228.1,89.9,222.6,94.4L222.6,94.4z M203.8,47.8h-14.3v46.9h14
	c14.8,0,21.1-7.4,21.1-23.4C224.7,56,217.8,47.8,203.8,47.8L203.8,47.8z M242.4,96.7c-4-3.4-6-8.9-6.1-17.9c0-9.1,2.1-14.5,6.1-18
	c3.8-3.2,8.8-4.4,13.8-4.4c5,0,10.1,1.3,13.8,4.4c4,3.4,6.1,8.9,6.1,17.9c0,9.1-2.1,14.5-6.1,18c-3.7,3.3-8.7,4.4-13.8,4.4
	C251.3,101.1,246.2,100,242.4,96.7z M270.1,78.8c0-11.7-4.2-17.5-13.9-17.5c-10.1,0-13.8,5.2-13.8,17.5c0,11.7,4.2,17.6,13.8,17.6
	C266.3,96.4,270.1,91.1,270.1,78.8z M300.1,101.1c-4.3,0-8.6-1.3-12-4.8c-3.9-4.1-5.5-10.1-5.5-17.5c0-7.3,2-14.4,7.3-18.5
	c4.2-3.2,8.9-3.9,13.8-3.9c3.1,0,6.3,0.3,9.7,0.6v5.2c-3.1-0.4-6.4-0.7-9.7-0.7c-10.7,0-15.2,5.5-15.2,17.4
	c0,10.5,4.1,17.1,12.9,17.1c3.8,0,8.1-1.2,12.6-2.5v5C309.6,99.8,304.9,101.1,300.1,101.1L300.1,101.1z M343.8,98.9
	c-3.1,1.7-7,2.3-11.9,2.3c-3.5,0-7.6-0.3-11.7-0.7v-5c4,0.3,8.1,0.7,11.3,0.7c3.5,0,6.2-0.3,8.5-1.2c2.8-1.2,3.7-3.6,3.7-6.1
	c0-3.6-2.1-5.6-6-6.8c-2.3-0.8-4.6-1.3-7.6-2.1c-6.4-1.8-10-4.7-10-11.6c0-3.6,1.4-7.6,5.2-9.7c3-1.7,6.7-2.2,11.1-2.2
	c3,0,6.7,0.3,10.6,0.6v5c-3.8-0.4-7.5-0.7-10.3-0.7c-3.1,0-5.5,0.3-7.6,1.1c-2.7,1.2-3.4,3.4-3.4,5.8c0,3.4,1.8,5.1,5.5,6.4
	c2.2,0.7,4.4,1.3,7.5,2.1c6.6,1.8,10.5,4.9,10.5,12.1C349.2,92.5,347.8,96.6,343.8,98.9L343.8,98.9z"/>
</svg>
