<svg xmlns="http://www.w3.org/2000/svg" width="50" height="50" viewBox="0 0 50 50"><defs><style>.a{fill:#0a81c4;}</style></defs><path class="a" d="M25,0A25,25,0,1,0,50,25,25.006,25.006,0,0,0,25,0ZM39.014,33.134c-2.007,1.62-4.542,2.042-7.394,2.042H23.592l-1.444-4.3H15.88l1.162-3.7h3.908l-2.676-8.028h-.106L12.746,35.176H7.958l7.43-20.352h5.986l6.056,16.62h4.225c3.732,0,5.634-2.007,5.634-6.408,0-4.19-2.007-6.408-5.6-6.408H24.648l-1.373-3.768H31.62c2.852,0,5.352.423,7.359,2.007,2.183,1.761,3.1,4.789,3.1,8.1,0,3.38-.88,6.408-3.063,8.169Z"/></svg>